<svg version="1.1"
	 id="svg6086" inkscape:version="0.92.1 r15371" sodipodi:docname="eticket.logo.svg" xmlns:cc="http://creativecommons.org/ns#" xmlns:dc="http://purl.org/dc/elements/1.1/" xmlns:inkscape="http://www.inkscape.org/namespaces/inkscape" xmlns:rdf="http://www.w3.org/1999/02/22-rdf-syntax-ns#" xmlns:sodipodi="http://sodipodi.sourceforge.net/DTD/sodipodi-0.dtd" xmlns:svg="http://www.w3.org/2000/svg"
	 xmlns="http://www.w3.org/2000/svg" xmlns:xlink="http://www.w3.org/1999/xlink" x="0px" y="0px" viewBox="0 0 201.3 79.4"
	 style="enable-background:new 0 0 201.3 79.4;" xml:space="preserve">
<style type="text/css">
	.st0{fill:#E70F26;}
    .st1{fill:#0A0A0A;}
    .st2{fill:#D31F26;}
    .st3{fill:none;stroke:#0A0A0A;stroke-width:2;stroke-linecap:round;stroke-miterlimit:10;}
</style>
<sodipodi:namedview  bordercolor="#666666" borderopacity="1.0" id="base" inkscape:current-layer="layer1" inkscape:cx="121.19024" inkscape:cy="171.62951" inkscape:document-units="mm" inkscape:pageopacity="0.0" inkscape:pageshadow="2" inkscape:window-height="706" inkscape:window-maximized="1" inkscape:window-width="1366" inkscape:window-x="-8" inkscape:window-y="-8" inkscape:zoom="0.98994949" pagecolor="#ffffff" showgrid="false" units="mm">
	</sodipodi:namedview>
<g id="layer1" transform="translate(0,-268.99999)" inkscape:groupmode="layer" inkscape:label="Layer 1">
	<g id="g6821">
		<path id="rect5840" inkscape:connector-curvature="0" class="st0" d="M0.1,272v1.4v26v20.2v26v1.4H10l0.4-0.8
			c2.3-4.4,6.8-7.2,11.8-7.2c5,0,9.5,2.8,11.8,7.2l0.4,0.8h9.9v-27.5v-20.2V272h-9.9l-0.4,0.8c-2.3,4.4-6.8,7.2-11.8,7.2
			c-5,0-9.5-2.8-11.8-7.2L10,272L0.1,272z M3,274.9h5.5c2.9,4.9,8.1,7.9,13.8,7.9h0c5.7,0,10.9-3.1,13.7-7.9h5.5v24.6v20.2v2h-6.2
			v2.8h6.2v19.8h-5.5c-2.9-4.9-8.1-7.9-13.7-7.9h0c-5.7,0-10.9,3.1-13.8,7.9H3v-19.8h6.3v-2.8H3v-2v-20.2L3,274.9z M12.3,321.6v2.8
			h8.4v-2.8H12.3z M23.7,321.6v2.8h8.4v-2.8H23.7z"/>
		<path id="path5875" inkscape:connector-curvature="0" sodipodi:nodetypes="cccccscsccaaaascccccc" class="st1" d="M66.6,288.6v4.5
			h3.6v3.6h-3.6v6.7c0,0.7,0.1,1.2,0.4,1.5c0.3,0.3,0.9,0.4,1.7,0.4l1.3-0.6l1.8,2.7c0,0-1.4,1.1-2.3,1.4c-0.8,0.2-1.7,0.1-2.5,0.1
			c-0.8,0-1.5-0.1-2.3-0.3c-0.7-0.2-1.5-0.4-2-0.9c-1-1.1-1.2-2.3-1.2-4.2v-6.7h-2.5V293h2.5v-4.5L66.6,288.6z"/>
		<path id="path5877" inkscape:connector-curvature="0" class="st1" d="M78.8,293h5v15.8h-5V293z M78.8,286.9h5v4.1h-5V286.9z"/>
		<path id="path5881" inkscape:connector-curvature="0" sodipodi:nodetypes="ccccccccccccc" class="st1" d="M115.1,286.9h5v11.5
			l4.5-5.3h5.9l-6,6.1l6.6,9.7H125l-3.7-6.6l-1.1,0.9v5.7h-5L115.1,286.9z"/>
		<path id="path5896" inkscape:connector-curvature="0" sodipodi:nodetypes="cccccscsccaaaascccccc" class="st1" d="M163.9,287.1
			v4.5h3.6v3.6h-3.6v6.7c0,0.7,0.1,1.2,0.4,1.5c0.3,0.3,0.9,0.4,1.7,0.4l1.3-0.6l1.8,2.7c0,0-1.4,1.1-2.3,1.4
			c-0.8,0.2-1.7,0.1-2.5,0.1c-0.8,0-1.5-0.1-2.3-0.3c-0.7-0.2-1.5-0.4-2-0.9c-1-1.1-1.2-2.3-1.2-4.2v-6.7h-2.5v-3.6h2.5v-4.5H163.9z
			"/>
		<path id="path5898" inkscape:connector-curvature="0" class="st2" d="M23.2,291.7c-1.1,0-2.2,0.1-3.4,0.5
			c-2.6,0.9-4.4,2.3-5.4,4.2c-1,1.9-1.1,4.1-0.3,6.5c0.8,2.5,2.2,4.2,4.2,5c2,0.9,4.3,0.8,7-0.1c1.1-0.4,2.2-0.9,3.3-1.5
			c0.9-0.5,1.7-1.1,2.5-1.7l-2.5-2.5c-0.3,0.3-0.7,0.7-1,0.9c-1,0.6-1.9,1.1-2.9,1.5c-1.2,0.4-2.3,0.5-3.2,0.1
			c-0.9-0.3-1.6-1-2.1-2.1l7.2-2.4l-0.8-0.8l0.8,0.8l4-1.3l-0.5-1.4c-0.8-2.4-2.1-4-4-5C25.2,292,24.2,291.7,23.2,291.7L23.2,291.7z
			 M22.1,295.3c0.4,0,0.8,0.1,1.1,0.3c0.7,0.4,1.2,1,1.5,1.9l-6.2,2.1c-0.2-1-0.1-1.9,0.3-2.6c0.4-0.7,1.1-1.2,2-1.5
			C21.3,295.3,21.7,295.2,22.1,295.3L22.1,295.3z"/>
		<path id="path5905" inkscape:connector-curvature="0" class="st1" d="M144.7,292.1c-1.1,0-2.2,0.1-3.4,0.5
			c-2.6,0.9-4.4,2.3-5.4,4.2c-1,1.9-1.1,4.1-0.3,6.5c0.8,2.5,2.2,4.2,4.2,5c2,0.9,4.3,0.8,7-0.1c1.1-0.4,2.2-0.9,3.3-1.5
			c0.9-0.5,1.7-1.1,2.5-1.7l-2.5-2.5c-0.3,0.3-0.7,0.7-1,0.9c-1,0.6-1.9,1.1-2.9,1.5c-1.2,0.4-2.3,0.5-3.2,0.1
			c-0.9-0.3-1.6-1-2.1-2.1l7.2-2.4l-0.8-0.8l0.8,0.8l4-1.3l-0.5-1.4c-0.8-2.4-2.1-4-4-5C146.8,292.4,145.8,292.2,144.7,292.1
			L144.7,292.1z M143.7,295.7c0.4,0,0.8,0.1,1.1,0.3c0.7,0.4,1.2,1,1.5,1.9l-6.2,2.1c-0.2-1-0.1-1.9,0.3-2.6c0.4-0.7,1.1-1.2,2-1.5
			C142.9,295.7,143.3,295.7,143.7,295.7z"/>
		<path id="path5907" inkscape:connector-curvature="0" class="st1" d="M101,292.9c-4.6,0-8.3,3.6-8.3,8.1c0,0,0,0,0,0
			c0,4.5,3.7,8.1,8.3,8.1c2.3,0,4.4-0.9,6-2.5l-2.9-2.9c-0.8,0.9-1.9,1.5-3,1.5c-2.2,0-4-1.9-4-4.1c0-2.3,1.8-4.1,4-4.1
			c1.2,0,2.3,0.5,3,1.5l2.9-2.9C105.4,293.8,103.3,292.9,101,292.9L101,292.9z"/>
		<path id="path5920" inkscape:connector-curvature="0" sodipodi:nodetypes="sscsscccccccccccccccc" class="st2" d="M190.3,270.3
			c-6,0-10.8,4.8-10.8,10.8c0,6,0.6,5.4,10.8,15.4c10.5-10.2,10.8-9.4,10.8-15.4C201.1,275.1,196.3,270.3,190.3,270.3z M190.4,273.8
			h3.2l-0.1,10h1.6l0.1,2.4h-1.6v2.9h-2.8v-2.9H184v-2.6L190.4,273.8z M190.7,277.7l-3.9,6.1h3.8L190.7,277.7z"/>
		<g>
			<path class="st0" d="M69.3,315.8c-0.1,0.8-0.4,1.6-1,2.2c-0.4,0.4-1,0.7-2,1l-0.9,0.3c-0.7,0.2-1.7,0.4-2.3,1
				c-0.4,0.4-0.8,1-0.9,1.8h0.1c0.4-0.4,1.2-1.1,2.9-1.1c1.4,0,2.5,0.5,3.2,1.2c0.7,0.7,1.2,1.8,1.2,3.1c0,1.3-0.5,2.5-1.3,3.4
				c-1.1,1.1-2.4,1.3-3.6,1.3c-1.2,0-2.4-0.3-3.4-1.2c-1.3-1.3-1.5-3.1-1.5-4.3c0-1.6,0.3-4.2,1.6-5.6c1-1,2.1-1.3,3-1.5L65,317
				c0.8-0.2,1.4-0.3,1.8-0.7c0.1-0.2,0.2-0.3,0.2-0.5H69.3z M63.2,323.7c-0.4,0.4-0.6,1-0.6,1.6c0,0.6,0.3,1.2,0.6,1.5
				c0.3,0.3,0.8,0.6,1.6,0.6c0.6,0,1-0.2,1.4-0.5c0.4-0.4,0.7-1,0.7-1.6c0-0.6-0.2-1.1-0.6-1.5c-0.5-0.5-1.1-0.6-1.5-0.6
				C63.9,323.1,63.5,323.5,63.2,323.7z"/>
			<path class="st0" d="M74,321.1v4.8l3.6-4.8h2.5v8.4h-2.7v-4.9l-3.6,4.9h-2.5v-8.4H74z"/>
			<path class="st0" d="M84.9,333.8h-2.7v-12.6h2.7v1c0.9-1.1,1.9-1.3,2.6-1.3c1.5,0,2.4,0.7,3,1.2c0.7,0.7,1.3,1.9,1.3,3.3
				c0,1.4-0.5,2.5-1.3,3.4c-0.8,0.8-1.7,1.1-2.8,1.1c-1.7,0-2.4-0.9-2.7-1.2V333.8z M85.3,323.8c-0.4,0.4-0.6,1-0.6,1.5
				c0,0.5,0.2,1,0.6,1.5c0.4,0.4,1,0.6,1.5,0.6c0.5,0,1-0.2,1.4-0.6c0.4-0.4,0.7-1,0.7-1.6c0-0.6-0.3-1.2-0.6-1.5
				c-0.4-0.4-0.9-0.6-1.5-0.6C86.1,323.2,85.6,323.5,85.3,323.8z"/>
			<path class="st0" d="M100.8,321.1v3.4l2.4-3.4h3.1l-3,3.9l3.4,4.4h-3.3l-2.5-3.6v3.6h-2.6v-3.6l-2.5,3.6h-3.3l3.4-4.4l-3-3.9h3.1
				l2.4,3.4v-3.4H100.8z"/>
			<path class="st0" d="M114.1,321.1h2.7v8.4h-2.7v-1c-0.7,1.1-1.8,1.3-2.5,1.3c-1.2,0-2.2-0.3-3.1-1.3c-0.9-1-1.2-2-1.2-3.1
				c0-1.4,0.5-2.6,1.3-3.4c0.7-0.7,1.7-1.1,2.9-1.1c0.7,0,1.9,0.2,2.6,1.2V321.1z M110.6,323.8c-0.3,0.3-0.6,0.8-0.6,1.5
				c0,0.7,0.3,1.2,0.6,1.5c0.4,0.4,0.9,0.7,1.6,0.7c0.5,0,1-0.2,1.4-0.6c0.4-0.4,0.7-0.8,0.7-1.6c0-0.6-0.2-1.2-0.6-1.5
				c-0.4-0.4-1-0.6-1.5-0.6C111.5,323.2,111,323.4,110.6,323.8z"/>
		</g>
		<g>
			<line class="st3" x1="146" y1="317.1" x2="149.9" y2="317.1"/>
			<g>
				<polyline class="st3" points="126.6,329 130.7,324.6 140.5,327.5 149.9,317.1 				"/>
				<line class="st3" x1="149.9" y1="317.1" x2="150.3" y2="320.7"/>
			</g>
		</g>
	</g>
</g>
</svg>