<?xml version="1.0" encoding="utf-8"?>
<!-- Generator: Adobe Illustrator 22.0.1, SVG Export Plug-In . SVG Version: 6.00 Build 0)  -->
<svg version="1.1" id="Layer_1" xmlns="http://www.w3.org/2000/svg" xmlns:xlink="http://www.w3.org/1999/xlink" x="0px" y="0px"
	 viewBox="0 0 395.5 395.5" style="enable-background:new 0 0 395.5 395.5;" xml:space="preserve">
<style type="text/css">
	.st0{fill:none;stroke:#d31f26;stroke-width:22;stroke-miterlimit:10;}
	.st1{fill:#d31f26;}
</style>
<path class="st0" d="M339.2,384.5H56.3c-24.9,0-45.3-20.4-45.3-45.3V56.3C11,31.4,31.4,11,56.3,11h282.9c24.9,0,45.3,20.4,45.3,45.3
	v282.9C384.5,364.1,364.1,384.5,339.2,384.5z"/>
<path class="st1" d="M209.3,267.4c6.1,0,8.5-4,8.5-9.1c-0.3-19.1,7.1-29.4,20.5-16c14.8,14.8,17.9,25.1,35.9,25.1H306
	c8,0,11.2-2.6,11.2-6.6c0-8.6-14.1-23.8-26.1-34.9c-16.8-15.6-17.6-15.9-3.1-34.7c17.9-23.3,41.4-53.1,20.6-53.1H269
	c-7.7,0-8.2,4.3-11,10.8c-9.9,23.4-28.7,53.6-35.9,49c-7.5-4.8-4.1-23.9-3.5-52.4c0.1-7.5,0.1-12.7-11.4-15.3c-6.3-1.4-12.4-2-18-2
	c-22.6,0-38.2,9.5-29.4,11.1c15.6,2.9,14.1,36.8,10.5,51.4c-6.4,25.4-30.2-20.1-40.2-42.9c-2.4-5.5-3.1-9.7-11.7-9.7H86.1
	c-4.9,0-7.8,1.6-7.8,5.1c0,6,29.5,66.9,57.6,97.3C163.3,270,190.4,267.4,209.3,267.4z"/>
</svg>
