<?xml version="1.0" encoding="utf-8"?>
<!-- Generator: Adobe Illustrator 22.0.1, SVG Export Plug-In . SVG Version: 6.00 Build 0)  -->
<svg version="1.1" id="Layer_1" xmlns="http://www.w3.org/2000/svg" xmlns:xlink="http://www.w3.org/1999/xlink" x="0px" y="0px"
	 viewBox="0 0 395.5 395.5" style="enable-background:new 0 0 395.5 395.5;" xml:space="preserve">
<style type="text/css">
	.st0{fill:none;stroke:#FFFFFF;stroke-width:22;stroke-miterlimit:10;}
	.st1{fill:#FFFFFF;}
</style>
<path class="st0" d="M339.2,384.5H56.3c-24.9,0-45.3-20.4-45.3-45.3V56.3C11,31.4,31.4,11,56.3,11h282.9c24.9,0,45.3,20.4,45.3,45.3
	v282.9C384.5,364.1,364.1,384.5,339.2,384.5z"/>
<path class="st1" d="M305.7,143.4c-2.6-9.8-10.3-17.4-20-20.1c-17.4-4.7-88-4.7-88-4.7s-70.6,0-88,4.7c-9.7,2.7-17.4,10.3-20,20.1
	c-4.7,17.5-4.7,54.6-4.7,54.6s0,37,4.7,54.7c2.6,9.7,10.3,17.1,20,19.6c17.4,4.7,88,4.7,88,4.7s70.6,0,88-4.7
	c9.7-2.7,17.4-10,20-19.8c4.7-17.5,4.7-54.6,4.7-54.6S310.4,161.1,305.7,143.4z M165.6,243.7V152l80.4,45.9L165.6,243.7z"/>
</svg>
