<?xml version="1.0" encoding="utf-8"?>
<!-- Generator: Adobe Illustrator 22.0.1, SVG Export Plug-In . SVG Version: 6.00 Build 0)  -->
<svg version="1.1" id="settings" xmlns="http://www.w3.org/2000/svg" xmlns:xlink="http://www.w3.org/1999/xlink" x="0px" y="0px"
	 viewBox="0 0 384 384" style="enable-background:new 0 0 384 384;" xml:space="preserve">
<style type="text/css">
	.st0{fill:#d31f26;}
</style>
<g>
	<path class="st0" d="M240.3,49.5h-95V25.8h95V49.5z M382.8,73.3v261.1c0,26.2-21.3,47.5-47.5,47.5H50.4
		c-26.2,0-47.5-21.3-47.5-47.5V73.3c0-26.2,21.3-47.5,47.5-47.5v23.7c-13.1,0-23.7,10.7-23.7,23.7v47.5H359V73.3
		c0-13.1-10.6-23.7-23.7-23.7V25.8C361.5,25.8,382.8,47.1,382.8,73.3z M97.9,298.8H26.7v35.6c0,13.1,10.7,23.7,23.7,23.7h47.5V298.8
		z M97.9,227.6H26.7v47.5h71.2V227.6z M97.9,144.5H26.7v59.3h71.2V144.5z M181,298.8h-59.3v59.3H181V298.8z M181,227.6h-59.3v47.5
		H181V227.6z M181,144.5h-59.3v59.3H181V144.5z M264.1,298.8h-59.3v59.3h59.3V298.8z M264.1,227.6h-59.3v47.5h59.3V227.6z
		 M264.1,144.5h-59.3v59.3h59.3V144.5z M359,298.8h-71.2v59.3h47.5c13.1,0,23.7-10.6,23.7-23.7V298.8z M359,227.6h-71.2v47.5H359
		V227.6z M359,144.5h-71.2v59.3H359V144.5z M86,73.3h23.7c6.6,0,11.9-5.3,11.9-11.9V13.9c0-6.6-5.3-11.9-11.9-11.9H86
		c-6.6,0-11.9,5.3-11.9,11.9v47.5C74.2,68,79.5,73.3,86,73.3z M275.9,73.3h23.7c6.6,0,11.9-5.3,11.9-11.9V13.9
		c0-6.6-5.3-11.9-11.9-11.9h-23.7c-6.6,0-11.9,5.3-11.9,11.9v47.5C264.1,68,269.4,73.3,275.9,73.3z"/>
</g>
</svg>
