<?xml version="1.0" encoding="utf-8"?>
<!-- Generator: Adobe Illustrator 22.0.1, SVG Export Plug-In . SVG Version: 6.00 Build 0)  -->
<svg version="1.1" id="bell" xmlns="http://www.w3.org/2000/svg" xmlns:xlink="http://www.w3.org/1999/xlink" x="0px" y="0px"
	 viewBox="0 0 384 384" style="enable-background:new 0 0 384 384;" xml:space="preserve">
<style type="text/css">
	.st0{fill:#2B2B2B;}
</style>
<g>
	<g>
		<path class="st0" d="M327.9,310.8l-18.6-35v-86.4c0-53.4-35.9-98.6-84.8-112.7V33.6c0-18-14.6-32.6-32.6-32.6
			s-32.6,14.6-32.6,32.6v43.1C110.5,90.8,74.6,136,74.6,189.4v86.4l-18.6,35c-3.6,6.7-3.4,14.7,0.5,21.2s10.8,10.5,18.5,10.5h74
			c1.3,22.6,20,40.6,43,40.6c22.9,0,41.7-18,43-40.6h74c7.6,0,14.5-3.9,18.5-10.5C331.3,325.4,331.5,317.5,327.9,310.8z M176.6,33.6
			c0-8.5,6.9-15.3,15.3-15.3s15.3,6.9,15.3,15.3v39.5c-5-0.7-10.1-1-15.3-1s-10.3,0.3-15.3,1V33.6L176.6,33.6z M91.8,189.4
			c0-55.2,44.9-100.1,100.1-100.1S292,134.2,292,189.4v79.3H91.8V189.4z M191.9,365.8c-13.4,0-24.5-10.3-25.7-23.4h51.4
			C216.4,355.5,205.3,365.8,191.9,365.8z M312.6,323.1c-0.4,0.6-1.5,2.1-3.7,2.1H75c-2.2,0-3.3-1.5-3.7-2.1
			c-0.4-0.6-1.1-2.3-0.1-4.2l17.6-33h206.4l17.6,33C313.7,320.8,312.9,322.5,312.6,323.1z"/>
	</g>
</g>
<g>
	<g>
		<path class="st0" d="M191.9,112.3c-42.5,0-77.1,34.6-77.1,77.1c0,4.8,3.9,8.6,8.6,8.6c4.8,0,8.6-3.9,8.6-8.6
			c0-33,26.9-59.9,59.9-59.9c4.8,0,8.6-3.9,8.6-8.6C200.5,116.1,196.7,112.3,191.9,112.3z"/>
	</g>
</g>
</svg>
