<svg version="1.1" id="svg6086" xmlns="http://www.w3.org/2000/svg" x="0" y="0" viewBox="0 0 201.3 79.4" xml:space="preserve"><style>.st1{fill:#000}.st2{fill:#d31f26}.st3{fill:#666}</style><g id="layer1" transform="translate(0 -269)"><g id="g6821"><path id="rect5840" d="M.1 272v75H10l.4-.8c2.3-4.4 6.8-7.2 11.8-7.2 5 0 9.5 2.8 11.8 7.2l.4.8h9.9v-75h-9.9l-.4.8c-2.3 4.4-6.8 7.2-11.8 7.2-5 0-9.5-2.8-11.8-7.2l-.4-.8H.1zm2.9 2.9h5.5c2.9 4.9 8.1 7.9 13.8 7.9 5.7 0 10.9-3.1 13.7-7.9h5.5v46.8h-6.2v2.8h6.2v19.8H36c-2.9-4.9-8.1-7.9-13.7-7.9-5.7 0-10.9 3.1-13.8 7.9H3v-19.8h6.3v-2.8H3v-46.8zm9.3 46.7v2.8h8.4v-2.8h-8.4zm11.4 0v2.8h8.4v-2.8h-8.4z" fill="#e70f26"/><path id="path5875" class="st1" d="M66.6 288.6v4.5h3.6v3.6h-3.6v6.7c0 .7.1 1.2.4 1.5.3.3.9.4 1.7.4l1.3-.6 1.8 2.7s-1.4 1.1-2.3 1.4c-.8.2-1.7.1-2.5.1s-1.5-.1-2.3-.3c-.7-.2-1.5-.4-2-.9-1-1.1-1.2-2.3-1.2-4.2v-6.7H59V293h2.5v-4.5l5.1.1z"/><path id="path5877" class="st1" d="M78.8 293h5v15.8h-5V293zm0-6.1h5v4.1h-5v-4.1z"/><path id="path5881" class="st1" d="M115.1 286.9h5v11.5l4.5-5.3h5.9l-6 6.1 6.6 9.7H125l-3.7-6.6-1.1.9v5.7h-5l-.1-22z"/><path id="path5896" class="st1" d="M163.9 287.1v4.5h3.6v3.6h-3.6v6.7c0 .7.1 1.2.4 1.5.3.3.9.4 1.7.4l1.3-.6 1.8 2.7s-1.4 1.1-2.3 1.4c-.8.2-1.7.1-2.5.1s-1.5-.1-2.3-.3c-.7-.2-1.5-.4-2-.9-1-1.1-1.2-2.3-1.2-4.2v-6.7h-2.5v-3.6h2.5v-4.5h5.1z"/><path id="path5898" class="st2" d="M23.2 291.7c-1.1 0-2.2.1-3.4.5-2.6.9-4.4 2.3-5.4 4.2-1 1.9-1.1 4.1-.3 6.5.8 2.5 2.2 4.2 4.2 5 2 .9 4.3.8 7-.1 1.1-.4 2.2-.9 3.3-1.5.9-.5 1.7-1.1 2.5-1.7l-2.5-2.5c-.3.3-.7.7-1 .9-1 .6-1.9 1.1-2.9 1.5-1.2.4-2.3.5-3.2.1-.9-.3-1.6-1-2.1-2.1l7.2-2.4-.8-.8.8.8 4-1.3-.5-1.4c-.8-2.4-2.1-4-4-5-.9-.4-1.9-.7-2.9-.7zm-1.1 3.6c.4 0 .8.1 1.1.3.7.4 1.2 1 1.5 1.9l-6.2 2.1c-.2-1-.1-1.9.3-2.6.4-.7 1.1-1.2 2-1.5.5-.2.9-.3 1.3-.2z"/><path id="path5905" class="st1" d="M144.7 292.1c-1.1 0-2.2.1-3.4.5-2.6.9-4.4 2.3-5.4 4.2-1 1.9-1.1 4.1-.3 6.5.8 2.5 2.2 4.2 4.2 5 2 .9 4.3.8 7-.1 1.1-.4 2.2-.9 3.3-1.5.9-.5 1.7-1.1 2.5-1.7l-2.5-2.5c-.3.3-.7.7-1 .9-1 .6-1.9 1.1-2.9 1.5-1.2.4-2.3.5-3.2.1-.9-.3-1.6-1-2.1-2.1l7.2-2.4-.8-.8.8.8 4-1.3-.5-1.4c-.8-2.4-2.1-4-4-5-.8-.4-1.8-.6-2.9-.7zm-1 3.6c.4 0 .8.1 1.1.3.7.4 1.2 1 1.5 1.9l-6.2 2.1c-.2-1-.1-1.9.3-2.6.4-.7 1.1-1.2 2-1.5.5-.2.9-.2 1.3-.2z"/><path id="path5907" class="st1" d="M101 292.9c-4.6 0-8.3 3.6-8.3 8.1s3.7 8.1 8.3 8.1c2.3 0 4.4-.9 6-2.5l-2.9-2.9c-.8.9-1.9 1.5-3 1.5-2.2 0-4-1.9-4-4.1 0-2.3 1.8-4.1 4-4.1 1.2 0 2.3.5 3 1.5l2.9-2.9c-1.6-1.8-3.7-2.7-6-2.7z"/><path id="path5920" class="st2" d="M190.3 270.3c-6 0-10.8 4.8-10.8 10.8 0 6 .6 5.4 10.8 15.4 10.5-10.2 10.8-9.4 10.8-15.4s-4.8-10.8-10.8-10.8zm.1 3.5h3.2l-.1 10h1.6l.1 2.4h-1.6v2.9h-2.8v-2.9H184v-2.6l6.4-9.8zm.3 3.9l-3.9 6.1h3.8l.1-6.1z"/><path id="path5982" class="st3" d="M62.3 321.7h1.5v2.6h2.3v-2.6h1.5v6.7h-1.5v-2.9h-2.3v2.9h-1.5v-6.7z"/><path id="path5984" class="st3" d="M71 326.2c-.3 0-.5.1-.7.2-.1.1-.2.3-.2.5s.1.4.2.5c.1.1.3.2.5.2.3 0 .5-.1.7-.3.2-.2.3-.5.3-.8v-.2l-.8-.1zm2.2-.6v2.9h-1.4v-.7c-.2.3-.4.5-.6.7-.2.1-.5.2-.9.2-.5 0-.8-.2-1.1-.5-.3-.3-.4-.7-.4-1.2 0-.6.2-1 .5-1.3.4-.3.9-.4 1.7-.4h.8v-.1c0-.3-.1-.4-.3-.6-.2-.1-.5-.2-.8-.2-.3 0-.6 0-.8.1-.3.1-.5.2-.7.3v-1.2c.3-.1.6-.1.9-.2.3 0 .6-.1.9-.1.8 0 1.4.2 1.7.5.3.4.5.9.5 1.8z"/><path id="path5986" class="st3" d="M78.1 323.5v1.3c-.2-.2-.4-.3-.6-.3-.2-.1-.4-.1-.6-.1-.4 0-.7.1-.9.4-.2.3-.3.6-.3 1.1 0 .5.1.8.3 1.1.2.3.5.4.9.4.2 0 .4 0 .6-.1l.6-.3v1.3c-.2.1-.4.2-.7.2-.2 0-.5.1-.7.1-.8 0-1.4-.2-1.9-.7-.5-.5-.7-1.1-.7-2 0-.8.2-1.5.7-1.9.5-.5 1.1-.7 1.9-.7.2 0 .5 0 .7.1.3 0 .5 0 .7.1z"/><path id="path5988" class="st3" d="M79.1 328.4v-1.2c.5-.1.8-.3.9-.7.1-.3.1-1.1.1-2.4v-.8h3.8v5.1h-1.4v-3.9h-1v.2c0 1.3-.1 2.2-.3 2.6-.3.7-1.1 1.1-2.1 1.1z"/><path id="path5990" class="st3" d="M87.3 326.2c-.3 0-.5.1-.7.2-.1.1-.2.3-.2.5s.1.4.2.5c.1.1.3.2.5.2.3 0 .5-.1.7-.3.2-.2.3-.5.3-.8v-.2l-.8-.1zm2.1-.6v2.9H88v-.7c-.2.3-.4.5-.6.7-.2.1-.5.2-.9.2-.5 0-.8-.2-1.1-.5-.3-.3-.4-.7-.4-1.2 0-.6.2-1 .5-1.3.4-.3.9-.4 1.7-.4h.8v-.1c0-.3-.1-.4-.3-.6-.2-.1-.5-.2-.8-.2-.3 0-.6 0-.8.1-.3.1-.5.2-.7.3v-1.2c.3-.1.6-.1.9-.2.3 0 .6-.1.9-.1.8 0 1.4.2 1.7.5.4.4.5.9.5 1.8z"/><path id="path5992" class="st3" d="M90.2 328.4l2-3-1.9-2.1h1.6l1.5 1.7v-1.7h1.4v1.7l1.5-1.7h1.6l-1.9 2.1 2 3h-1.5l-1.4-2.1-.4.4v1.7h-1.4v-1.7l-.4-.4-1.4 2.1h-1.3z"/><path id="path5994" class="st3" d="M98.9 327.3c.3-.1.5-.4.6-.7.1-.4.2-1.1.2-2.2v-1h3.8v3.9h.7v2.4h-1v-1.3h-3.6v1.3h-1v-2.4h.3zm3.2-2.8h-1v.1c0 1.1-.1 2-.3 2.6h1.3v-2.7z"/><path id="path5996" class="st3" d="M107.4 326.2c-.3 0-.5.1-.7.2-.1.1-.2.3-.2.5s.1.4.2.5c.1.1.3.2.5.2.3 0 .5-.1.7-.3.2-.2.3-.5.3-.8v-.2l-.8-.1zm2.2-.6v2.9h-1.4v-.7c-.2.3-.4.5-.6.7-.2.1-.5.2-.9.2-.5 0-.8-.2-1.1-.5-.3-.3-.4-.7-.4-1.2 0-.6.2-1 .5-1.3.4-.3.9-.4 1.7-.4h.8v-.1c0-.3-.1-.4-.3-.6-.2-.1-.5-.2-.8-.2-.3 0-.6 0-.8.1-.3.1-.5.2-.7.3v-1.2c.3-.1.6-.1.9-.2.3 0 .6-.1.9-.1.8 0 1.4.2 1.7.5.3.4.5.9.5 1.8z"/><path id="path5998" class="st3" d="M115.3 323.4v5.1h-1.4v-2.7l-1.4 2.7H111v-5.1h1.4v2.7l1.4-2.7h1.5zm-3.5-2h.6c0 .2.1.4.2.5.1.1.3.2.5.2s.4-.1.5-.2c.1-.1.2-.3.2-.5h.6c0 .4-.1.8-.4 1-.2.2-.6.3-1 .3s-.7-.1-1-.3c-.1-.3-.2-.6-.2-1z"/><path id="path6000" class="st3" d="M120.2 323.5v1.3c-.2-.2-.4-.3-.6-.3-.2-.1-.4-.1-.6-.1-.4 0-.7.1-.9.4-.2.3-.3.6-.3 1.1 0 .5.1.8.3 1.1.2.3.5.4.9.4.2 0 .4 0 .6-.1l.6-.3v1.3c-.2.1-.4.2-.7.2-.2 0-.5.1-.7.1-.8 0-1.4-.2-1.9-.7-.5-.5-.7-1.1-.7-2 0-.8.2-1.5.7-1.9.5-.5 1.1-.7 1.9-.7.2 0 .5 0 .7.1.3 0 .5 0 .7.1z"/><path id="path6002" class="st3" d="M122.7 325c0 .2.1.4.2.5.1.1.3.1.5.1h.5v-1.2h-.5c-.2 0-.4 0-.5.1-.1.1-.2.3-.2.5zm-1.7 3.4l1.2-2.2c-.2-.1-.4-.3-.6-.6-.2-.3-.2-.5-.2-.9 0-.5.1-.8.4-1.1.3-.2.7-.4 1.4-.4h2.2v5.1H124v-1.8h-.5l-1 1.8H121z"/><path id="path6004" class="st3" d="M128.9 328.4l2-3-1.9-2.1h1.6l1.5 1.7v-1.7h1.4v1.7l1.5-1.7h1.6l-1.9 2.1 2 3h-1.5l-1.4-2.1-.4.4v1.7H132v-1.7l-.4-.4-1.4 2.1h-1.3z"/><path id="path6006" class="st3" d="M141.9 323.4v5.1h-1.4v-2.7l-1.4 2.7h-1.5v-5.1h1.4v2.7l1.4-2.7h1.5z"/><path id="path6008" class="st3" d="M145.4 325.3c.2 0 .3 0 .4-.1.1-.1.1-.2.1-.3s0-.3-.1-.3c-.1-.1-.2-.1-.4-.1h-.7v.9h.7zm0 2.1c.2 0 .4 0 .5-.1.1-.1.2-.2.2-.4s-.1-.3-.2-.4c-.1-.1-.3-.1-.5-.1h-.7v1.1l.7-.1zm-2.1-4h2c.7 0 1.1.1 1.4.3.3.2.4.5.4 1 0 .2-.1.5-.2.6-.1.2-.3.3-.5.4.3.1.5.2.6.5.1.2.2.5.2.8 0 .5-.2.9-.5 1.1-.3.2-.8.4-1.4.4h-2.2l.2-5.1z"/><path id="path6010" class="st3" d="M153 323.4h1.4v5.1H153v-5.1zm-1.8 3.5c0-.2-.1-.3-.2-.4-.1-.1-.3-.1-.5-.1h-.7v1.1h.7c.2 0 .4 0 .5-.1.1-.2.2-.4.2-.5zm-2.8-3.5h1.4v1.9h.8c.6 0 1.1.1 1.4.4.3.3.5.7.5 1.2s-.2.9-.5 1.2c-.3.2-.8.4-1.4.4h-2.2v-5.1z"/><path id="path6012" class="st3" d="M155.8 323.4h1.6l1 2.5 1-2.5h1.6v5.1h-1.4v-2.9l-.7 1.9h-.9l-.8-1.9v2.9h-1.4v-5.1z"/><path id="path6014" class="st3" d="M166.7 323.4v5.1h-1.4v-2.7l-1.4 2.7h-1.5v-5.1h1.4v2.7l1.4-2.7h1.5z"/><path id="path5963" class="st3" d="M65.8 338.3v1.3c-.2-.2-.4-.3-.6-.3-.2-.1-.4-.1-.6-.1-.4 0-.7.1-.9.4-.2.3-.3.6-.3 1.1 0 .5.1.8.3 1.1.2.3.5.4.9.4.2 0 .4 0 .6-.1l.6-.3v1.3c-.2.1-.4.2-.7.2-.2 0-.5.1-.7.1-.8 0-1.4-.2-1.9-.7-.5-.5-.7-1.1-.7-2 0-.8.2-1.5.7-1.9.5-.5 1.1-.7 1.9-.7.2 0 .5 0 .7.1.3 0 .5 0 .7.1z"/><path id="path5965" class="st3" d="M69.2 339.2c-.3 0-.6.1-.7.4-.2.3-.2.6-.2 1.1 0 .5.1.9.2 1.1.2.3.4.4.7.4.3 0 .5-.1.7-.4.2-.3.2-.6.2-1.1 0-.5-.1-.9-.2-1.1-.2-.3-.4-.4-.7-.4zm0-1.2c.8 0 1.4.2 1.8.7.4.5.6 1.1.6 1.9 0 .8-.2 1.5-.6 1.9-.4.5-1 .7-1.8.7s-1.4-.2-1.8-.7c-.4-.5-.6-1.1-.6-1.9 0-.8.2-1.5.6-1.9.4-.4 1-.7 1.8-.7z"/><path id="path5967" class="st3" d="M72.4 340.4v-.8c0-.2-.1-.4-.1-.6 0-.6.1-1.1.2-1.5.3-.7.6-1.1 1-1.3.3-.1 1.1-.2 2.4-.4.1 0 .3 0 .4-.1l.3 1c-.2.1-.8.1-1.8.2-.5 0-.8.1-1 .3-.3.2-.5.6-.5 1 .4-.3.9-.4 1.5-.4.8 0 1.4.2 1.8.7.4.5.6 1.1.6 1.9 0 .8-.2 1.5-.6 1.9-.4.5-1 .7-1.8.7s-1.4-.2-1.8-.7c-.4-.5-.6-1.1-.6-1.9 0 .2 0 .1 0 0zm2.4-1.2c-.3 0-.6.1-.7.4-.2.3-.2.6-.2 1.1 0 .5.1.9.2 1.1.2.3.4.4.7.4.3 0 .6-.1.7-.4.2-.3.2-.6.2-1.1 0-.5-.1-.9-.2-1.1-.1-.3-.4-.4-.7-.4z"/><path id="path5969" class="st3" d="M82.9 338.2h1.4v5.1h-1.4v-5.1zm-1.8 3.4c0-.2-.1-.3-.2-.4-.1-.1-.3-.1-.5-.1h-.7v1.1h.7c.2 0 .4 0 .5-.1.1-.1.2-.3.2-.5zm-2.8-3.4h1.4v1.9h.8c.6 0 1.1.1 1.4.4.3.3.5.7.5 1.2s-.2.9-.5 1.2c-.3.2-.8.4-1.4.4h-2.2v-5.1z"/><path id="path5971" class="st3" d="M85 338.2h4.6v1H88v4.1h-1.4v-4.1H85v-1z"/><path id="path5973" class="st3" d="M94.7 338.2v5.1h-1.4v-2.7l-1.4 2.7h-1.5v-5.1h1.4v2.7l1.4-2.7h1.5z"/><path id="path5975" class="st3" d="M97.3 339.8c0 .2.1.4.2.5.1.1.3.1.5.1h.5v-1.2H98c-.2 0-.4 0-.5.1-.1.1-.2.2-.2.5zm-1.7 3.4l1.2-2.2c-.2-.1-.4-.3-.6-.6-.2-.3-.2-.5-.2-.9 0-.5.1-.8.4-1.1.3-.2.7-.4 1.4-.4h2.2v5.1h-1.4v-1.8H98l-1 1.8h-1.4z"/><path id="path5977" class="st3" d="M101.3 338.2h1.6l1 2.5 1-2.5h1.6v5.1h-1.4v-2.9l-.7 1.9h-.9l-.8-1.9v2.9h-1.4v-5.1z"/><path id="path5979" class="st3" d="M112.3 338.2v5.1h-1.4v-2.7l-1.4 2.7H108v-5.1h1.4v2.7l1.4-2.7h1.5z"/></g></g></svg>