<svg version="1.1" id="svg1095" xmlns="http://www.w3.org/2000/svg" x="0" y="0" viewBox="0 0 77 97.3" xml:space="preserve"><style>.st0{opacity:5.000000e-02}.st1{fill:#fff}</style><g id="layer1_29_" transform="translate(0 -288.3)" class="st0"><g id="g1711_29_" transform="translate(-40.902 237.728) scale(.26458)"><g id="text917_29_"><path id="path923_29_" class="st1" d="M211.9 417l-11-5c-.5 1.2-.4 2.3.1 3.3s1.6 1.9 3.2 2.6c1 .5 2.1.7 3.2.8 1.1.1 2.1 0 2.8-.1l.5.2-1.8 3.9c-1.3-.1-2.5-.2-3.5-.4-1.1-.2-2.2-.6-3.3-1.2-3-1.4-5-3.1-6-5.2s-.9-4.4.2-6.9 2.8-4.1 5-4.9 4.6-.5 7.3.7c2.4 1.1 4 2.6 4.7 4.4s.5 3.8-.6 6.2l-.8 1.6zm-3.5-5c.4-1 .5-1.9.3-2.6s-.9-1.3-1.9-1.8c-.9-.4-1.8-.5-2.6-.3s-1.5.8-2.1 1.9l6.3 2.8z"/></g><path id="path919_29_" class="st1" d="M192.8 365.9l-1.2 2.6-17.9 39.4-17.9 39.4-1.2 2.6 14.8 6.7 1.4-1.8c3.8-5.1 10.5-6.9 16.3-4.2 5.8 2.6 8.9 8.9 7.5 15.1l-.5 2.2 14.8 6.7 1.2-2.6 17.9-39.4 17.9-39.4 1.2-2.6-14.8-6.7-1.4 1.8c-3.8 5.1-10.5 6.9-16.3 4.2-5.8-2.6-8.9-8.9-7.5-15.1l.5-2.2-14.8-6.7zm2.8 7.5l5.9 2.7c-.7 7.9 3.4 15.7 10.8 19 7.4 3.4 15.9 1.4 21.5-4.4l5.9 2.7-16.7 36.8-5 11.1-7.5-3.4-2.3 5.2 7.5 3.4-9.4 20.6-5.9-2.7c.7-7.9-3.4-15.7-10.8-19-7.4-3.4-15.9-1.4-21.5 4.4l-5.9-2.7 9.4-20.6 7.5 3.4 2.3-5.2-7.5-3.4 5-11.1 16.7-36.8zm-9.1 53.7l-2.3 5.2 6.9 3.1 2.3-5.2-6.9-3.1zm12.1 5.4l-2.3 5.2 6.6 3 2.3-5.2-6.6-3z"/></g></g><g id="layer1_28_" transform="translate(0 -288.3)" class="st0"><g id="g1711_28_" transform="translate(-40.902 237.728) scale(.26458)"><g id="text917_28_"><path id="path923_28_" class="st1" d="M211.9 242.2l-11-5c-.5 1.2-.4 2.3.1 3.3s1.6 1.9 3.2 2.6c1 .5 2.1.7 3.2.8 1.1.1 2.1 0 2.8-.1l.5.2-1.8 3.9c-1.3-.1-2.5-.2-3.5-.4-1.1-.2-2.2-.6-3.3-1.2-3-1.4-5-3.1-6-5.2s-.9-4.4.2-6.9 2.8-4.1 5-4.9c2.2-.8 4.6-.5 7.3.7 2.4 1.1 4 2.6 4.7 4.4s.5 3.8-.6 6.2l-.8 1.6zm-3.5-5c.4-1 .5-1.9.3-2.6-.2-.7-.9-1.3-1.9-1.8-.9-.4-1.8-.5-2.6-.3s-1.5.8-2.1 1.9l6.3 2.8z"/></g><path id="path919_28_" class="st1" d="M192.8 191.1l-1.2 2.6-17.9 39.4-17.9 39.4-1.2 2.6 14.8 6.7 1.4-1.8c3.8-5.1 10.5-6.9 16.3-4.2 5.8 2.6 8.9 8.9 7.5 15.1l-.5 2.2 14.8 6.7 1.2-2.6 17.9-39.4 17.9-39.4 1.2-2.6-14.8-6.7-1.4 1.8c-3.8 5.1-10.5 6.9-16.3 4.2-5.8-2.6-8.9-8.9-7.5-15.1l.5-2.2-14.8-6.7zm2.8 7.5l5.9 2.7c-.7 7.9 3.4 15.7 10.8 19 7.4 3.4 15.9 1.4 21.5-4.4l5.9 2.7-16.7 36.8-5 11.1-7.5-3.4-2.3 5.2 7.5 3.4-9.4 20.6-5.9-2.7c.7-7.9-3.4-15.7-10.8-19-7.4-3.4-15.9-1.4-21.5 4.4l-5.9-2.7 9.4-20.6 7.5 3.4 2.3-5.2-7.5-3.4 5-11.1 16.7-36.8zm-9.1 53.7l-2.3 5.2 6.9 3.1 2.3-5.2-6.9-3.1zm12.1 5.5l-2.3 5.2 6.6 3 2.3-5.2-6.6-3z"/></g></g><g id="layer1_25_" transform="translate(0 -288.3)" class="st0"><g id="g1711_25_" transform="translate(-40.902 237.728) scale(.26458)"><g id="text917_25_"><path id="path923_25_" class="st1" d="M355.6 487.5l-11-5c-.5 1.2-.4 2.3.1 3.3s1.6 1.9 3.2 2.6c1 .5 2.1.7 3.2.8 1.1.1 2.1 0 2.8-.1l.5.2-1.8 3.9c-1.3-.1-2.5-.2-3.5-.4-1.1-.2-2.2-.6-3.3-1.2-3-1.4-5-3.1-6-5.2s-.9-4.4.2-6.9 2.8-4.1 5-4.9 4.6-.5 7.3.7c2.4 1.1 4 2.6 4.7 4.4s.5 3.8-.6 6.2l-.8 1.6zm-3.5-5c.4-1 .5-1.9.3-2.6s-.9-1.3-1.9-1.8c-.9-.4-1.8-.5-2.6-.3s-1.5.8-2.1 1.9l6.3 2.8z"/></g><path id="path919_25_" class="st1" d="M336.5 436.4l-1.2 2.6-17.9 39.4-17.9 39.4-1.2 2.6 14.8 6.7 1.4-1.8c3.8-5.1 10.5-6.9 16.3-4.2 5.8 2.6 8.9 8.9 7.5 15.1l-.5 2.2 14.8 6.7 1.2-2.6 17.9-39.4 17.9-39.4 1.2-2.6-14.8-6.7-1.4 1.8c-3.8 5.1-10.5 6.9-16.3 4.2-5.8-2.6-8.9-8.9-7.5-15.1l.5-2.2-14.8-6.7zm2.8 7.5l5.9 2.7c-.7 7.9 3.4 15.7 10.8 19 7.4 3.4 15.9 1.4 21.5-4.4l5.9 2.7-16.7 36.8-5 11.1-7.5-3.4-2.3 5.2 7.5 3.4-9.4 20.6-5.9-2.7c.7-7.9-3.4-15.7-10.8-19-7.4-3.4-15.9-1.4-21.5 4.4l-5.9-2.7 9.4-20.6 7.5 3.4 2.3-5.2-7.5-3.4 5-11.1 16.7-36.8zm-9.1 53.7l-2.3 5.2 6.9 3.1 2.3-5.2-6.9-3.1zm12 5.5l-2.3 5.2 6.6 3 2.3-5.2-6.6-3z"/></g></g><g id="layer1_24_" transform="translate(0 -288.3)" class="st0"><g id="g1711_24_" transform="translate(-40.902 237.728) scale(.26458)"><g id="text917_24_"><path id="path923_24_" class="st1" d="M355.6 312.8l-11-5c-.5 1.2-.4 2.3.1 3.3s1.6 1.9 3.2 2.6c1 .5 2.1.7 3.2.8 1.1.1 2.1 0 2.8-.1l.5.2-1.8 3.9c-1.3-.1-2.5-.2-3.5-.4-1.1-.2-2.2-.6-3.3-1.2-3-1.4-5-3.1-6-5.2s-.9-4.4.2-6.9 2.8-4.1 5-4.9 4.6-.5 7.3.7c2.4 1.1 4 2.6 4.7 4.4s.5 3.8-.6 6.2l-.8 1.6zm-3.5-5c.4-1 .5-1.9.3-2.6s-.9-1.3-1.9-1.8c-.9-.4-1.8-.5-2.6-.3s-1.5.8-2.1 1.9l6.3 2.8z"/></g><path id="path919_24_" class="st1" d="M336.5 261.7l-1.2 2.6-17.9 39.4-17.9 39.4-1.2 2.6 14.8 6.7 1.4-1.8c3.8-5.1 10.5-6.9 16.3-4.2 5.8 2.6 8.9 8.9 7.5 15.1l-.5 2.2 14.8 6.7 1.2-2.6 17.9-39.4 17.9-39.4 1.2-2.6-14.8-6.7-1.4 1.8c-3.8 5.1-10.5 6.9-16.3 4.2-5.8-2.6-8.9-8.9-7.5-15.1l.5-2.2-14.8-6.7zm2.8 7.5l5.9 2.7c-.7 7.9 3.4 15.7 10.8 19 7.4 3.4 15.9 1.4 21.5-4.4l5.9 2.7-16.8 36.8-5 11.1-7.5-3.4-2.3 5.2 7.5 3.4-9.4 20.6-5.9-2.7c.7-7.9-3.4-15.7-10.8-19-7.4-3.4-15.9-1.4-21.5 4.4l-5.9-2.7 9.4-20.6 7.5 3.4 2.3-5.2-7.5-3.4 5-11.1 16.8-36.8zm-9.1 53.6l-2.3 5.2 6.9 3.1 2.3-5.2-6.9-3.1zm12 5.5l-2.3 5.2 6.6 3 2.3-5.2-6.6-3z"/></g></g></svg>